<svg width="24" height="24" viewBox="0 0 24 24" fill="none" xmlns="http://www.w3.org/2000/svg">
<path fill-rule="evenodd" clip-rule="evenodd" d="M11.7524 2.00003C6.15862 2.00003 1.62219 6.45274 1.62219 11.9458C1.62219 16.3399 4.52478 20.0673 8.5506 21.3824C9.05747 21.474 9.24219 21.1668 9.24219 20.9031C9.24219 20.6674 9.23348 20.0417 9.2285 19.2119C6.4105 19.8127 5.81593 17.8784 5.81593 17.8784C5.35507 16.7294 4.69084 16.4235 4.69084 16.4235C3.77098 15.8069 4.7605 15.8191 4.7605 15.8191C5.77736 15.8894 6.31223 16.8442 6.31223 16.8442C7.21591 18.3639 8.68369 17.9249 9.26085 17.6703C9.3529 17.028 9.61473 16.5896 9.90393 16.3411C7.65438 16.0902 5.28914 15.2367 5.28914 11.4257C5.28914 10.3401 5.68408 9.45173 6.33214 8.75693C6.22765 8.50539 5.87998 7.49372 6.43164 6.12487C6.43164 6.12487 7.28183 5.85745 9.21731 7.14448C10.0252 6.92347 10.8922 6.81357 11.7536 6.80929C12.6144 6.81357 13.4807 6.92347 14.2899 7.14448C16.2241 5.85745 17.073 6.12487 17.073 6.12487C17.626 7.49372 17.2783 8.50539 17.1744 8.75693C17.8237 9.45173 18.2155 10.3401 18.2155 11.4257C18.2155 15.2464 15.8466 16.0871 13.5902 16.3332C13.9534 16.6403 14.2774 17.2472 14.2774 18.1752C14.2774 19.5044 14.265 20.5771 14.265 20.9031C14.265 21.1693 14.4478 21.4789 14.9616 21.3817C18.9843 20.0636 21.8844 16.3387 21.8844 11.9458C21.8844 6.45274 17.3479 2.00003 11.7524 2.00003Z" fill="white"/>
</svg>
